#!OML:ASF H:\Terrain\Patient Classification 1\Takeo\Monday\TakeoMonday.ASF
:FULLY-SPECIFIED
:DEGREES
1172
root 18.9858 16.1192 0.271803 -9.37919 -20.0185 6.17567
lowerback 15.5508 5.43687 12.0623
upperback 6.86386 8.85825 6.52134
thorax -0.49106 4.50795 -1.09171
lowerneck -17.5772 -6.39068 -2.56105
upperneck 6.74644 -7.96169 0.031043
head 4.93952 -3.96942 -0.319014
rclavicle -6.83819e-014 -3.18055e-015
rhumerus 53.0054 13.3456 -89.7377
rradius 30.8638
rwrist -46.4712
rhand -53.7078 30.4824
rfingers 7.12502
rthumb -26.1435 2.26234
lclavicle -6.83819e-014 -3.18055e-015
lhumerus 39.7705 -11.9417 49.2089
lradius 72.6284
lwrist 28.8363
lhand -20.9578 20.2571
lfingers 7.12502
lthumb 5.41508 50.1679
rfemur 6.27816 -13.6524 0.0567792
rtibia 54.7115
rfoot -29.8671 -41.1516
rtoes 14.9252
lfemur -24.6152 -7.82372 -32.7886
ltibia 54.415
lfoot -15.944 -7.80925
ltoes 10.3357
1173
root 18.9494 16.1771 0.314234 -9.08281 -19.3782 5.88825
lowerback 15.0718 5.50588 11.9798
upperback 6.58394 8.90422 6.50294
thorax -0.54615 4.52252 -1.04211
lowerneck -17.6516 -6.73704 -2.74318
upperneck 7.23663 -8.41525 0.303821
head 5.12984 -4.17448 -0.263704
rclavicle 1.02573e-013 -6.99722e-014
rhumerus 53.5119 14.803 -89.3645
rradius 31.366
rwrist -46.4291
rhand -52.8485 29.4164
rfingers 7.12502
rthumb -25.3206 1.07717
lclavicle 1.02573e-013 -6.99722e-014
lhumerus 39.8366 -11.657 48.8377
lradius 72.8832
lwrist 29.143
lhand -20.7572 20.1513
lfingers 7.12502
lthumb 5.60876 50.0571
rfemur 6.81329 -13.6528 0.555737
rtibia 53.9359
rfoot -29.8207 -40.9713
rtoes 17.3534
lfemur -24.1671 -8.4749 -32.5455
ltibia 53.593
lfoot -15.3903 -7.85621
ltoes 11.6151
1174
root 18.9167 16.2385 0.357059 -8.89603 -18.894 6.34797
lowerback 14.6087 5.68594 11.2434
upperback 6.24876 9.0206 6.27752
thorax -0.736563 4.55939 -0.885683
lowerneck -16.8464 -6.96221 -3.28837
upperneck 6.91494 -8.71668 1.14816
head 4.96877 -4.28175 0.0845106
rclavicle 5.80451e-014 6.36111e-015
rhumerus 53.9648 16.4395 -88.8061
rradius 31.7372
rwrist -46.3364
rhand -52.3309 27.8285
rfingers 7.12502
rthumb -24.8246 -0.580002
lclavicle 5.80451e-014 6.36111e-015
lhumerus 39.7839 -11.3734 48.4828
lradius 73.1271
lwrist 29.3426
lhand -20.4337 20.5319
lfingers 7.12502
lthumb 5.92113 50.4292
rfemur 7.09395 -13.3307 0.35743
rtibia 53.1311
rfoot -29.9432 -40.8728
rtoes 18.737
lfemur -23.8584 -9.16108 -33.0203
ltibia 52.7287
lfoot -15.0036 -7.7305
ltoes 12.5231
1175
root 18.8799 16.3057 0.408858 -8.66363 -18.4464 6.3771
lowerback 14.0281 5.83401 11.0526
upperback 6.08546 9.12517 6.06083
thorax -0.587985 4.61867 -0.965801
lowerneck -16.244 -7.03317 -3.58636
upperneck 6.48522 -8.86315 2.06297
head 4.79921 -4.30398 0.426161
rclavicle -5.40694e-014 2.8625e-014
rhumerus 54.8111 17.921 -88.1293
rradius 32.0567
rwrist -46.335
rhand -52.0827 27.2456
rfingers 7.12502
rthumb -24.5868 -1.1955
lclavicle -5.40694e-014 2.8625e-014
lhumerus 40.0335 -11.0598 47.9691
lradius 73.279
lwrist 29.2027
lhand -20.4827 20.5681
lfingers 7.12502
lthumb 5.87378 50.4667
rfemur 7.54666 -13.0848 0.583963
rtibia 52.2337
rfoot -29.3701 -41.1265
rtoes 18.5593
lfemur -23.4142 -9.8874 -33.053
ltibia 51.9399
lfoot -14.768 -7.74086
ltoes 14.071
1176
root 18.8434 16.366 0.463607 -8.28974 -18.0764 5.23823
lowerback 13.6211 5.81329 12.1079
upperback 5.85711 9.18871 6.04426
thorax -0.426553 4.66692 -1.4964
lowerneck -15.9809 -7.14328 -3.24135
upperneck 6.61172 -9.11154 2.22053
head 4.7963 -4.40703 0.405071
rclavicle 1.05356e-014 -4.45278e-014
rhumerus 55.4744 19.2063 -87.8351
rradius 32.5106
rwrist -46.6003
rhand -51.9061 27.0609
rfingers 7.12502
rthumb -24.4175 -1.4031
lclavicle 1.05356e-014 -4.45278e-014
lhumerus 40.2469 -10.8615 47.3411
lradius 73.4203
lwrist 29.2523
lhand -20.5077 20.5934
lfingers 7.12502
lthumb 5.84969 50.4926
rfemur 8.28462 -12.9107 2.06337
rtibia 51.2664
rfoot -28.6434 -41.5098
rtoes 18.2002
lfemur -22.7724 -10.5028 -31.9117
ltibia 51.2617
lfoot -14.6122 -7.82986
ltoes 15.5662
1177
root 18.8103 16.4066 0.509281 -7.93864 -17.617 4.33584
lowerback 13.4155 5.8199 12.5216
upperback 5.39583 9.27955 6.26507
thorax -0.770254 4.68147 -1.5032
lowerneck -15.337 -7.3368 -3.15864
upperneck 6.71749 -9.39931 2.09099
head 4.72426 -4.5606 0.34661
rclavicle -1.98785e-015 6.67916e-014
rhumerus 55.8869 21.0567 -86.2676
rradius 33.3395
rwrist -47.606
rhand -52.4074 28.7958
rfingers 7.12502
rthumb -24.898 0.397374
lclavicle -1.98785e-015 6.67916e-014
lhumerus 39.9147 -10.715 47.259
lradius 73.6408
lwrist 29.4338
lhand -20.3212 21.0488
lfingers 7.12502
lthumb 6.02977 50.943
rfemur 8.93566 -12.7867 3.3042
rtibia 50.3265
rfoot -27.5523 -42.0765
rtoes 16.9084
lfemur -22.2178 -11.1733 -31.0408
ltibia 50.6203
lfoot -14.5085 -7.73826
ltoes 15.2943
1178
root 18.7727 16.4548 0.554926 -7.81555 -17.0428 4.42306
lowerback 12.8993 5.94867 12.0158
upperback 5.21688 9.33359 6.17119
thorax -0.748479 4.70421 -1.29883
lowerneck -14.8957 -7.5773 -3.42078
upperneck 6.55745 -9.74308 2.67642
head 4.65612 -4.70295 0.552404
rclavicle -6.85807e-014 -6.67916e-014
rhumerus 56.7151 22.4833 -85.0956
rradius 33.8953
rwrist -47.5811
rhand -52.6051 30.7534
rfingers 7.12502
rthumb -25.0874 2.3814
lclavicle -6.85807e-014 -6.67916e-014
lhumerus 39.9752 -10.3128 46.9215
lradius 74.0034
lwrist 29.67
lhand -20.8208 20.7971
lfingers 7.12502
lthumb 5.54736 50.7045
rfemur 9.46251 -12.6969 3.44168
rtibia 49.4692
rfoot -25.7072 -42.7789
rtoes 15.5149
lfemur -21.6767 -11.8378 -31.187
ltibia 49.9231
lfoot -14.3827 -7.57203
ltoes 13.5044
1179
root 18.7353 16.52 0.602848 -7.8689 -16.6451 4.86251
lowerback 12.399 6.19163 11.347
upperback 5.20537 9.50328 5.90304
thorax -0.541523 4.79937 -1.18476
lowerneck -14.9343 -7.80043 -3.61579
upperneck 6.69056 -10.0752 3.32099
head 4.75837 -4.82575 0.742463
rclavicle -4.83047e-014 -6.36111e-015
rhumerus 57.6187 23.4828 -84.3782
rradius 34.4463
rwrist -47.3627
rhand -52.4756 30.3835
rfingers 7.12502
rthumb -24.9633 1.99412
lclavicle -4.83047e-014 -6.36111e-015
lhumerus 40.5248 -9.97953 46.2057
lradius 74.0339
lwrist 29.7356
lhand -22.243 19.3215
lfingers 7.12502
lthumb 4.17416 49.2604
rfemur 9.93307 -12.455 3.18374
rtibia 48.7345
rfoot -23.9731 -43.0794
rtoes 15.2427
lfemur -21.0524 -12.2129 -31.6315
ltibia 49.089
lfoot -14.0542 -7.63716
ltoes 12.6803
1180
root 18.7012 16.5914 0.647019 -7.6406 -16.4129 4.69518
lowerback 12.0189 6.42853 11.2646
upperback 5.04833 9.76916 5.84914
thorax -0.482497 4.93124 -1.1828
lowerneck -14.929 -7.9913 -3.87046
upperneck 6.82827 -10.3293 3.71302
head 4.84396 -4.92902 0.872856
rclavicle -7.59357e-014 -7.95139e-014
rhumerus 58.4194 24.5213 -83.4615
rradius 35.0545
rwrist -47.731
rhand -51.9041 29.9894
rfingers 7.12502
rthumb -24.4156 1.52516
lclavicle -7.59357e-014 -7.95139e-014
lhumerus 40.9913 -9.72078 45.7794
lradius 73.8193
lwrist 29.5167
lhand -22.7437 18.1796
lfingers 7.12502
lthumb 3.69065 48.1274
rfemur 10.1956 -12.2505 3.65379
rtibia 48.0626
rfoot -22.8128 -42.949
rtoes 13.6982
lfemur -20.6359 -12.5546 -31.3766
ltibia 48.1995
lfoot -13.6663 -7.75215
ltoes 12.9597
1181
root 18.6675 16.647 0.692179 -7.27552 -16.0115 4.43369
lowerback 11.4081 6.57962 11.1957
upperback 4.91326 9.8879 5.84688
thorax -0.295557 4.99666 -1.08821
lowerneck -14.9213 -8.31602 -4.29758
upperneck 6.86438 -10.7317 4.14851
head 4.91634 -5.10748 1.02967
rclavicle -2.90226e-014 1.59028e-014
rhumerus 59.5289 25.6284 -82.3528
rradius 35.4189
rwrist -48.1642
rhand -50.9291 29.5653
rfingers 7.12502
rthumb -23.4806 0.978243
lclavicle -2.90226e-014 1.59028e-014
lhumerus 41.1987 -9.10101 45.8106
lradius 74.1817
lwrist 29.7449
lhand -22.1253 19.8003
lfingers 7.12502
lthumb 4.2878 49.7369
rfemur 10.4209 -12.247 4.16912
rtibia 47.4456
rfoot -21.748 -42.5957
rtoes 11.7044
lfemur -20.2928 -13.1295 -31.058
ltibia 47.294
lfoot -13.4734 -7.75119
ltoes 14.1486
1182
root 18.6362 16.686 0.738662 -7.1034 -15.6142 4.04737
lowerback 10.8613 6.58182 11.2405
upperback 4.97294 9.80788 5.87506
thorax 0.0608875 4.97712 -0.995834
lowerneck -15.1892 -8.57655 -4.68383
upperneck 6.98968 -11.0652 4.73482
head 5.0684 -5.23433 1.21889
rclavicle -7.26558e-014 -2.54444e-014
rhumerus 60.9745 26.9719 -81.1149
rradius 35.7895
rwrist -48.4906
rhand -50.8344 29.1418
rfingers 7.12502
rthumb -23.3897 0.543101
lclavicle -7.26558e-014 -2.54444e-014
lhumerus 41.3191 -8.01403 45.7145
lradius 74.7273
lwrist 30.3146
lhand -21.0888 22.3079
lfingers 7.12502
lthumb 5.28858 52.2219
rfemur 10.8882 -12.0662 4.81014
rtibia 46.8651
rfoot -21.0025 -42.2793
rtoes 10.2763
lfemur -19.6402 -13.6822 -30.6617
ltibia 46.46
lfoot -13.5761 -7.81325
ltoes 14.837
